<?xml version="1.0" standalone="no"?><!DOCTYPE svg PUBLIC "-//W3C//DTD SVG 1.1//EN" "http://www.w3.org/Graphics/SVG/1.1/DTD/svg11.dtd"><svg t="1575205118749" class="icon" viewBox="0 0 1024 1024" version="1.1" xmlns="http://www.w3.org/2000/svg" p-id="7561" xmlns:xlink="http://www.w3.org/1999/xlink" width="200" height="200"><defs><style type="text/css"></style></defs><path d="M945.493 839.543l70.042 77.142a13.653 13.653 0 0 1 0 18.295l-70.042 77.142a10.377 10.377 0 0 1-12.424 3.003 13.653 13.653 0 0 1-7.646-12.151V848.69a13.653 13.653 0 0 1 7.646-12.151 10.377 10.377 0 0 1 12.424 3.003z m-30.72-705.603H539.17V35.498a26.487 26.487 0 0 0-35.225-27.307L27.307 134.485a30.857 30.857 0 0 0-18.16 30.038v619.315a30.857 30.857 0 0 0 18.16 30.037l477.047 125.61a26.487 26.487 0 0 0 35.226-27.306v-91.75h375.193a19.797 19.797 0 0 0 19.798-19.798V153.737a19.797 19.797 0 0 0-19.798-19.798zM400.59 616.31l-57.071 2.731-69.632-102.673L204.8 619.042l-57.07-2.73 98.03-141.586-98.44-145.408 55.295 2.595 71.27 102.4 71.271-102.4 55.296-2.595-98.44 145.408z m241.118 93.662a10.377 10.377 0 0 1-10.377 10.377h-79.19a10.377 10.377 0 0 1-10.376-10.377v-63.351a10.24 10.24 0 0 1 10.377-10.24h78.643a10.377 10.377 0 0 1 10.377 10.24z m0-136.533a10.377 10.377 0 0 1-10.377 10.377h-79.19a10.377 10.377 0 0 1-10.376-10.377v-62.123a10.24 10.24 0 0 1 10.377-10.24h78.643a10.377 10.377 0 0 1 10.377 10.24z m0-135.305a10.377 10.377 0 0 1-10.377 10.377h-79.19a10.377 10.377 0 0 1-10.376-10.377v-62.122a10.24 10.24 0 0 1 10.377-10.24h78.643a10.377 10.377 0 0 1 10.377 10.24z m0-135.304a10.377 10.377 0 0 1-10.377 10.376h-79.19a10.377 10.377 0 0 1-10.376-10.376v-62.123a10.24 10.24 0 0 1 10.377-10.24h78.643a10.377 10.377 0 0 1 10.377 10.24z m185.275 407.142a10.377 10.377 0 0 1-10.376 10.377H713.523a10.377 10.377 0 0 1-10.376-10.377v-63.351a10.24 10.24 0 0 1 10.376-10.24h103.22a10.24 10.24 0 0 1 10.376 10.24z m0-135.304a10.377 10.377 0 0 1-10.376 10.376H713.523a10.377 10.377 0 0 1-10.376-11.605v-62.123a10.24 10.24 0 0 1 10.376-10.24h103.22a10.24 10.24 0 0 1 10.376 10.24z m0-135.305a10.377 10.377 0 0 1-10.376 10.377H713.523a10.377 10.377 0 0 1-10.376-10.377v-63.351a10.24 10.24 0 0 1 10.376-10.24h103.22a10.24 10.24 0 0 1 10.376 10.24z m0-135.304a10.377 10.377 0 0 1-10.376 10.376H713.523a10.377 10.377 0 0 1-10.376-10.376v-63.352a10.24 10.24 0 0 1 10.376-10.24h103.22a10.24 10.24 0 0 1 10.376 10.24zM716.39 883.507h226.236v80.555H716.39v-80.555z" p-id="7562"></path></svg>