<?xml version="1.0" standalone="no"?><!DOCTYPE svg PUBLIC "-//W3C//DTD SVG 1.1//EN" "http://www.w3.org/Graphics/SVG/1.1/DTD/svg11.dtd"><svg t="1575205015246" class="icon" viewBox="0 0 1024 1024" version="1.1" xmlns="http://www.w3.org/2000/svg" p-id="4363" xmlns:xlink="http://www.w3.org/1999/xlink" width="200" height="200"><defs><style type="text/css"></style></defs><path d="M784 835.2c3.2 3.2 6.4 6.4 6.4 12.8v153.6c0 6.4-3.2 9.6-6.4 12.8-3.2 3.2-9.6 0-12.8-3.2l-70.4-76.8c-3.2-6.4-3.2-12.8 0-19.2l70.4-76.8c0-3.2 6.4-3.2 12.8-3.2z" p-id="4364"></path><path d="M928 134.4H550.4v-99.2c0-16-9.6-28.8-25.6-28.8h-9.6l-476.8 124.8c-12.8 6.4-19.2 16-19.2 28.8v620.8c0 12.8 6.4 25.6 19.2 28.8l476.8 124.8c12.8 6.4 28.8-3.2 35.2-16 0-3.2 3.2-6.4 0-9.6v-92.8h374.4c9.6 0 19.2-9.6 19.2-19.2V153.6c3.2-9.6-6.4-19.2-16-19.2zM412.8 617.6l-57.6 3.2-70.4-102.4-70.4 102.4-57.6-3.2 99.2-140.8-99.2-144 54.4 3.2 70.4 102.4 70.4-102.4 54.4-3.2-99.2 144 105.6 140.8z m243.2 92.8c0 6.4-3.2 9.6-9.6 9.6H566.4c-6.4 0-9.6-3.2-9.6-9.6v-64c0-6.4 3.2-9.6 9.6-9.6h80c3.2 0 6.4 3.2 6.4 9.6l3.2 64z m0-137.6c0 6.4-3.2 9.6-9.6 9.6H566.4c-6.4 0-9.6-3.2-9.6-9.6V512c0-6.4 3.2-9.6 9.6-9.6h80c3.2 0 6.4 3.2 6.4 9.6l3.2 60.8z m0-134.4c0 6.4-3.2 9.6-9.6 9.6H566.4c-6.4 0-9.6-3.2-9.6-9.6v-60.8c0-6.4 3.2-9.6 9.6-9.6h80c6.4 0 9.6 3.2 9.6 9.6v60.8z m0-134.4c0 6.4-3.2 9.6-9.6 9.6H566.4c-6.4 0-9.6-3.2-9.6-9.6v-60.8c0-6.4 3.2-9.6 9.6-9.6h80c6.4 0 9.6 3.2 9.6 9.6v60.8z m182.4 406.4c0 6.4-3.2 9.6-9.6 9.6H726.4c-6.4 0-9.6-3.2-9.6-9.6v-64c0-6.4 3.2-9.6 9.6-9.6h102.4c6.4 0 9.6 3.2 9.6 9.6v64z m0-134.4c0 6.4-3.2 9.6-9.6 9.6H726.4c-6.4 0-9.6-6.4-9.6-9.6v-64c0-6.4 3.2-9.6 9.6-9.6h102.4c6.4 0 9.6 3.2 9.6 9.6v64z m0-137.6c0 6.4-3.2 9.6-9.6 9.6H726.4c-6.4 0-9.6-3.2-9.6-9.6v-64c0-6.4 3.2-9.6 9.6-9.6h102.4c6.4 0 9.6 3.2 9.6 9.6v64z m0-134.4c0 6.4-3.2 9.6-9.6 9.6H726.4c-6.4 0-9.6-3.2-9.6-9.6v-64c0-6.4 3.2-9.6 9.6-9.6h102.4c6.4 0 9.6 3.2 9.6 9.6v64zM777.6 883.2h227.2v80H777.6v-80z" p-id="4365"></path></svg>