<?xml version="1.0" standalone="no"?><!DOCTYPE svg PUBLIC "-//W3C//DTD SVG 1.1//EN" "http://www.w3.org/Graphics/SVG/1.1/DTD/svg11.dtd"><svg t="1575207016400" class="icon" viewBox="0 0 1024 1024" version="1.1" xmlns="http://www.w3.org/2000/svg" p-id="9631" xmlns:xlink="http://www.w3.org/1999/xlink" width="200" height="200"><defs><style type="text/css"></style></defs><path d="M512 0c165.790476 0 297.447619 131.657143 297.447619 297.447619s-131.657143 297.447619-297.447619 297.447619c-199.92381 0-360.838095 160.914286-360.838095 355.961905 0 24.380952-19.504762 39.009524-39.009524 39.009524s-39.009524-19.504762-39.009524-39.009524c0-180.419048 112.152381-341.333333 277.942857-404.72381C268.190476 492.495238 219.428571 399.847619 219.428571 297.447619 214.552381 131.657143 351.085714 0 512 0zM424.228571 906.971429c0-34.133333 34.133333-107.27619 58.514286-160.914286 9.752381 4.87619 19.504762 4.87619 29.257143 4.87619 9.752381 0 19.504762-4.87619 29.257143-4.87619 24.380952 53.638095 58.514286 126.780952 58.514286 160.914286 0 48.761905-87.771429 78.019048-87.771429 78.019047s-87.771429-29.257143-87.771429-78.019047z m448.609524 39.009523c0-112.152381-53.638095-214.552381-141.409524-282.819047-19.504762-14.628571-19.504762-39.009524-9.752381-58.514286 14.628571-19.504762 39.009524-19.504762 58.514286-9.752381 112.152381 82.895238 170.666667 209.67619 170.666667 346.209524 0 24.380952-19.504762 39.009524-39.009524 39.009524-24.380952 4.87619-39.009524-9.752381-39.009524-34.133334z m-326.704762-253.561904c0 19.504762-14.628571 34.133333-34.133333 34.133333s-34.133333-14.628571-34.133333-34.133333c0-19.504762 14.628571-34.133333 34.133333-34.133334s34.133333 14.628571 34.133333 34.133334zM512 512c117.028571 0 214.552381-97.52381 214.552381-214.552381 0-117.028571-97.52381-214.552381-214.552381-214.552381-117.028571 0-214.552381 97.52381-214.552381 214.552381s97.52381 214.552381 214.552381 214.552381z" p-id="9632"></path></svg>